<?xml version="1.0" standalone="no"?>
<!DOCTYPE svg PUBLIC "-//W3C//DTD SVG 20010904//EN"
 "http://www.w3.org/TR/2001/REC-SVG-20010904/DTD/svg10.dtd">
<svg version="1.0" xmlns="http://www.w3.org/2000/svg"
 width="512.000000pt" height="512.000000pt" viewBox="0 0 512.000000 512.000000"
 preserveAspectRatio="xMidYMid meet">

<g transform="translate(0.000000,512.000000) scale(0.100000,-0.100000)"
fill="#ff0000" stroke="none">
<path d="M558 4619 c-72 -210 -118 -414 -143 -644 -17 -150 -19 -370 -4 -434
10 -43 9 -44 -39 -100 -293 -342 -410 -760 -358 -1279 45 -439 139 -730 327
-1012 69 -102 247 -290 344 -362 284 -209 625 -332 1060 -380 169 -18 1459
-19 1630 0 426 47 782 174 1060 380 97 72 276 260 344 362 188 282 282 573
327 1012 52 519 -65 937 -358 1279 -48 56 -49 57 -39 100 15 64 13 284 -4 434
-25 229 -72 440 -141 639 -19 54 -34 101 -34 104 0 10 -99 -8 -205 -39 -277
-79 -627 -247 -942 -451 l-122 -79 -78 15 c-182 36 -258 41 -623 41 -365 0
-441 -5 -623 -41 l-78 -15 -122 79 c-146 94 -359 214 -494 277 -219 103 -488
197 -604 212 l-46 5 -35 -103z m2474 -680 c66 -35 61 -213 -7 -239 -15 -6 -94
-10 -176 -10 l-149 0 0 -75 0 -75 140 0 c134 0 142 -1 164 -23 42 -43 43 -171
1 -217 -16 -17 -35 -20 -159 -22 l-141 -3 -3 -77 -3 -78 185 0 c181 0 185 -1
213 -24 26 -23 28 -29 28 -106 0 -77 -2 -83 -28 -106 l-28 -24 -514 0 -514 0
-28 24 c-26 23 -28 29 -28 106 0 77 2 83 28 106 28 23 32 24 213 24 l184 0 0
74 c0 58 -3 75 -16 80 -9 3 -73 6 -144 6 -127 0 -129 0 -149 26 -29 37 -30
170 -2 205 18 23 27 24 163 29 l143 5 0 70 0 70 -163 5 c-155 5 -165 6 -182
28 -40 48 -36 167 6 209 l23 23 461 0 c311 0 468 -4 482 -11z m-857 -1334
c276 -20 594 -16 950 10 296 22 585 16 705 -15 140 -36 240 -91 335 -184 190
-186 267 -376 266 -657 0 -253 -50 -446 -156 -611 -60 -92 -107 -142 -200
-211 -223 -166 -519 -251 -995 -287 -175 -13 -865 -13 -1040 0 -476 36 -772
121 -995 287 -93 69 -140 119 -200 211 -106 165 -156 358 -156 611 -1 149 14
241 57 353 64 169 227 353 375 425 77 38 204 76 289 87 72 9 533 -3 765 -19z"/>
<path d="M1552 2159 c-144 -72 -232 -247 -232 -462 0 -167 51 -310 145 -403
66 -66 128 -94 210 -94 82 0 144 28 211 94 94 94 146 238 146 401 0 109 -16
184 -59 275 -91 191 -263 268 -421 189z"/>
<path d="M3340 2172 c-67 -26 -150 -113 -193 -202 -43 -91 -59 -166 -59 -275
0 -163 52 -307 146 -401 67 -66 129 -94 211 -94 82 0 144 28 210 94 93 93 145
236 145 401 0 279 -156 497 -354 494 -34 0 -81 -8 -106 -17z"/>
</g>
</svg>
